<svg id="Layer_1" data-name="Layer 1" xmlns="http://www.w3.org/2000/svg" viewBox="0 0 443.3 223.49"><title>LOGO-V1</title><path d="M35.55,100l-6.89-3.73A13.7,13.7,0,0,1,23,90.51q-1.53-3.29-1.53-9.94V22.06q.12-7.23,6.78-7.23,6.88,0,6.89,7.9V81.92h.15v0H64.67l1.26-1.4L54.64,78.93a4.74,4.74,0,0,1-4.74-4.74V21.38q0-9.27-5.54-14.63T28.44,1.38q-10.62,0-16.22,5.71t-5.59,15V82.83q0,11.17,3,16.6t10.9,10.06l8.13,4.4a13.23,13.23,0,0,1,5.65,5.82q1.47,3.33,1.47,10.79v69.69q0,8.25-6.89,8.25-7.23.1-7.23-8.47V129.82H6.86V201.1q0,9.93,5.71,15.47t16.54,5.54q10.39,0,15.93-5.76T50.58,200V126.32q0-11.29-3.45-16.61T35.55,100Z"/><path d="M148.38,97.4l-3.27,59.08h-1.36l-2.6-59.08-7.34-95H91.86l15.41,3A4.75,4.75,0,0,1,112,10.16V221h13.67V141.34l-1.13-81.56h1.35L136.63,221h15.48L163,59.78h1.36l-1.13,81.56L162.73,221H176.4V2.4H155.84Z"/><path d="M196,2.4,182.54,221H218l3.21-.58L203,218a4.74,4.74,0,0,1-4.74-4.94l2.14-49.65,14.57.22,2.6,57.39H233L219.82,2.4Zm5.08,147.75,4.4-97.6,1.59-32.64h1.46l1.59,32.64,4.4,97.6Z"/><path d="M69,2.4,55.59,221H91l3.21-.58L76,218A4.74,4.74,0,0,1,71.3,213l2.14-49.65,14.57.22L90.61,221h15.48L92.87,2.4Zm5.08,147.75,4.4-97.6,1.59-32.64h1.46l1.59,32.64,4.4,97.6Z"/><path d="M399.62,2.4,386.18,221h35.44l3.21-.58L406.62,218a4.74,4.74,0,0,1-4.74-4.94L404,163.37l14.57.22,2.6,57.39h15.48L423.45,2.4Zm5.08,147.75,4.41-97.6,1.58-32.64h1.47l1.58,32.64,4.4,97.6Z"/><path d="M365.46,100.22H352.13V2.4H269.34V63l1.59,75.91H269.8L254.09,2.4h-35l15.16,3A4.75,4.75,0,0,1,239,10.16V221h13.67V146.76l-1.81-72.4h.9L268.1,221h14.69V5.41l4.11-2V15.5h15.7V221h14.8V15.5H333V3.44l4,2V221h29.95l.06-1-10.13-2a4.74,4.74,0,0,1-4.74-4.74V113.44h13.33V221h14.79V2.4H365.46Z"/></svg>